<?xml version="1.0" encoding="utf-8"?>
<!-- Generator: Adobe Illustrator 17.1.0, SVG Export Plug-In . SVG Version: 6.00 Build 0)  -->
<!DOCTYPE svg PUBLIC "-//W3C//DTD SVG 1.1//EN" "http://www.w3.org/Graphics/SVG/1.1/DTD/svg11.dtd">
<svg version="1.1" id="Layer_1" xmlns="http://www.w3.org/2000/svg" xmlns:xlink="http://www.w3.org/1999/xlink" x="0px" y="0px"
	 viewBox="0 0 64 64" enable-background="new 0 0 64 64" xml:space="preserve">
<circle display="none" fill="#FFDD67" cx="32" cy="32" r="30"/>
<path fill="#F46767" d="M50.9,58L50.9,58L50.9,58L50.9,58L50.9,58z"/>
<ellipse fill="#664E27" cx="22" cy="27" rx="5" ry="6"/>
<path fill="#F46767" d="M61.4,42.6c-0.9-1.8-2.7-3-5-2.8c-2.3,0.2-4.1,1.4-5.6,3.5c-1.5-2-3.3-3.3-5.6-3.4c-2.3-0.1-4.1,1.1-5,2.9
	c-0.9,1.8-0.9,4.2,0.9,7c1.8,2.7,9.5,8.2,9.7,8.4c0.2-0.2,7.9-5.8,9.7-8.4C62.3,46.8,62.3,44.4,61.4,42.6z"/>
<path fill="#664E27" d="M51.9,30.5c-1.9-4.1-4.7-6.1-7.5-6.1s-5.6,2-7.5,6.1c-0.2,0.4,0.8,1.2,1.3,0.8c1.8-1.5,4-2.1,6.2-2.1
	s4.4,0.6,6.2,2.1C51.1,31.7,52,31,51.9,30.5z M39.5,50.4c1.6-1.6-1.8-3-1.8-5.9s3.4-4.2,1.8-5.9c-1.9-2-6-0.5-8.6-3.1
	c0,2.2,1.8,4.5,5.2,4.5c0,0-2.3,0.9-2.3,4.5s2.3,4.5,2.3,4.5c-3.4,0-5.2,2.3-5.2,4.5C33.5,50.8,37.6,52.3,39.5,50.4z"/>
</svg>
