<?xml version="1.0" encoding="utf-8"?>
<!-- Generator: Adobe Illustrator 17.1.0, SVG Export Plug-In . SVG Version: 6.00 Build 0)  -->
<!DOCTYPE svg PUBLIC "-//W3C//DTD SVG 1.1//EN" "http://www.w3.org/Graphics/SVG/1.1/DTD/svg11.dtd">
<svg version="1.1" id="Layer_1" xmlns="http://www.w3.org/2000/svg" xmlns:xlink="http://www.w3.org/1999/xlink" x="0px" y="0px"
	 viewBox="0 0 64 64" enable-background="new 0 0 64 64" xml:space="preserve">
<circle display="none" fill="#FFDD67" cx="32" cy="32" r="30"/>
<path opacity="0.5" fill="#664E27" enable-background="new    " d="M32,51.7"/>
<circle fill="#FFFFFF" cx="17" cy="30" r="11"/>
<circle fill="#FFFFFF" cx="47" cy="30" r="11"/>
<path fill="#494949" d="M36,27c-1.8-1.3-6.2-1.3-8,0c-1.1-1-0.9-2.1-2-3.1c3.1-2.3,8.4-2.7,12,0C36.9,24.9,37.1,26,36,27z"/>
<path fill="#494949" d="M47,17c-7.2,0-13,5.8-13,13s5.8,13,13,13s13-5.8,13-13S54.2,17,47,17z M47,40c-5.5,0-10-4.5-10-10
	c0-5.5,4.5-10,10-10s10,4.5,10,10C57,35.5,52.5,40,47,40z M17,17C9.8,17,4,22.8,4,30c0,7.2,5.8,13,13,13c7.2,0,13-5.8,13-13
	S24.2,17,17,17z M17,40c-5.5,0-10-4.5-10-10c0-5.5,4.5-10,10-10s10,4.5,10,10C27,35.5,22.5,40,17,40z"/>
<ellipse fill="#664E27" cx="20" cy="30.5" rx="4" ry="5"/>
<ellipse fill="#664E27" cx="44" cy="30.5" rx="4" ry="5"/>
<path fill="#664E27" d="M26.7,51.3c5.8,1.5,12,0.4,16.9-3c1.2-0.9-1.1-4-2.3-3.2c-3.2,2.3-8.4,3.8-13.7,2.4
	C26.3,47.2,25.2,50.9,26.7,51.3z"/>
<g>
	<path fill="#917524" d="M53.2,15.7c-3.2-2.7-7.5-3.9-11.7-3.1c-0.6,0.1-1.1-2-0.4-2.2c4.8-0.9,9.8,0.5,13.5,3.6
		C55.2,14.5,53.6,16.1,53.2,15.7z M22.5,12.4c-4.2-0.7-8.5,0.4-11.7,3.1c-0.4,0.4-2-1.2-1.4-1.7c3.7-3.2,8.7-4.5,13.5-3.6
		C23.6,10.4,23.1,12.5,22.5,12.4z"/>
</g>
</svg>
