<?xml version="1.0" encoding="utf-8"?>
<!-- Svg Vector Icons : http://www.onlinewebfonts.com/icon -->
<!DOCTYPE svg PUBLIC "-//W3C//DTD SVG 1.1//EN" "http://www.w3.org/Graphics/SVG/1.1/DTD/svg11.dtd">
<svg version="1.1" xmlns="http://www.w3.org/2000/svg" xmlns:xlink="http://www.w3.org/1999/xlink" x="0px" y="0px" viewBox="0 0 1000 1000" enable-background="new 0 0 1000 1000" xml:space="preserve">
<metadata> Svg Vector Icons : http://www.onlinewebfonts.com/icon </metadata>
<g><g style="fill:#fff;" transform="translate(0.000000,449.000000) scale(0.100000,-0.100000)"><path d="M1589.8,4355.7C904.2,4206.8,350,3681.1,150.7,2995.5l-50.4-173V-507c0-3741.2-15.3-3412.6,166.5-3796c258.5-554.2,744.7-941.9,1338.3-1066.7c129.2-28.5,635.2-32.9,3382-32.9c2862.8,0,3250.5,4.4,3399.5,35c300.1,61.4,604.6,212.5,858.6,427.1c232.2,195,473.1,569.5,567.3,880.5c87.6,291.3,92,479.7,85.4,3728.1l-6.6,3110.4l-50.4,175.2c-157.7,562.9-519.1,1007.6-1020.7,1248.5c-394.3,190.6-43.8,173-3780.6,179.6C2360.8,4384.2,1694.9,4379.8,1589.8,4355.7z M8763.3,2439.1v-832.3H7931h-832.3v832.3v832.4H7931h832.4V2439.1z M5525.9,1131.4c725-251.9,1180.6-884.9,1180.6-1638.4c0-808.3-541-1489.5-1327.4-1677.9c-256.3-61.3-639.6-50.4-876.2,24.1c-582.6,184-1009.8,619.9-1176.2,1198.1c-72.3,245.3-70.1,668.1,0,915.6c170.9,591.4,644,1051.4,1252.9,1215.7c135.8,37.2,216.8,43.8,460,37.2C5300.3,1199.4,5357.2,1190.6,5525.9,1131.4z M2498.8,485.3c0-4.4-19.7-54.8-41.6-116.1c-201.5-530.1-188.4-1266,30.7-1833.4c238.8-617.7,722.8-1150,1314.2-1447.8c427.1-214.7,994.4-313.2,1471.9-258.5c1066.7,124.9,1953.8,849.9,2271.4,1859.6c159.9,510.4,162.1,1099.6,2.2,1596.8c-30.7,94.2-54.7,177.4-54.7,188.4c0,8.8,326.4,15.3,722.8,15.3h722.8v-2054.6c0-2267.1,4.4-2194.8-138-2433.5c-135.8-227.8-372.4-389.9-637.4-438.1c-173-32.9-6174.7-32.9-6345.6-2.2c-398.6,74.5-711.9,407.4-764.4,810.4c-11,94.2-21.9,1003.2-21.9,2142.2V489.7H1765C2168,489.7,2498.8,487.5,2498.8,485.3z"/></g></g>
</svg>