<?xml version="1.0" encoding="utf-8"?>
<!-- Svg Vector Icons : http://www.onlinewebfonts.com/icon -->
<!DOCTYPE svg PUBLIC "-//W3C//DTD SVG 1.1//EN" "http://www.w3.org/Graphics/SVG/1.1/DTD/svg11.dtd">
<svg version="1.1" xmlns="http://www.w3.org/2000/svg" xmlns:xlink="http://www.w3.org/1999/xlink" x="0px" y="0px" viewBox="0 0 1000 1000" enable-background="new 0 0 1000 1000" xml:space="preserve">
<metadata> Svg Vector Icons : http://www.onlinewebfonts.com/icon </metadata>
<g><g><path style="fill:#fff;" d="M990,429.9c0,63.4-21.9,122-65.6,175.8c-43.8,53.8-103.2,96.3-178.3,127.4C671,764.3,589,779.9,500,779.9c-25.5,0-52-1.5-79.3-4.4c-72.2,63.8-156,107.9-251.6,132.3c-17.9,5.1-38.6,9.1-62.3,12c-6.2,0.7-11.8-0.9-16.7-4.9s-8.1-9.3-9.6-15.9v-0.5c-1.1-1.5-1.2-3.6-0.3-6.6c0.9-2.9,1.3-4.7,1.1-5.5c-0.2-0.7,0.6-2.5,2.5-5.2l3.3-4.9c0,0,1.3-1.5,3.8-4.6c2.6-3.1,4-4.7,4.4-4.9c2.6-2.9,8.2-9.2,17-18.9c8.8-9.7,15-16.6,18.9-20.8c3.8-4.2,9.5-11.4,17-21.6s13.4-19.5,17.8-27.9s9.3-19.1,14.8-32.3s10.2-27,14.2-41.6c-57.2-32.4-102.4-72.6-135.4-120.3c-33-47.8-49.5-99-49.5-153.7c0-47.4,12.9-92.7,38.8-135.9c25.9-43.2,60.7-80.5,104.5-111.8c43.8-31.4,95.9-56.2,156.4-74.6s124-27.6,190.3-27.6c89,0,171,15.6,246.1,46.8c75.1,31.2,134.5,73.6,178.3,127.4C968.1,307.9,990,366.5,990,429.9L990,429.9z"/></g></g>
</svg>