<?xml version="1.0" encoding="utf-8"?>
<!-- Svg Vector Icons : http://www.onlinewebfonts.com/icon -->
<!DOCTYPE svg PUBLIC "-//W3C//DTD SVG 1.1//EN" "http://www.w3.org/Graphics/SVG/1.1/DTD/svg11.dtd">
<svg version="1.1" xmlns="http://www.w3.org/2000/svg" xmlns:xlink="http://www.w3.org/1999/xlink" x="0px" y="0px" viewBox="0 0 1000 1000" enable-background="new 0 0 1000 1000" xml:space="preserve">
<metadata> Svg Vector Icons : http://www.onlinewebfonts.com/icon </metadata>
<g><g><path style="fill:#fff;" d="M990,196.5c-27.8,40.6-61.4,75.2-100.7,103.8c0.4,5.8,0.6,14.5,0.6,26.1c0,53.9-7.9,107.7-23.6,161.4c-15.8,53.7-39.7,105.2-71.8,154.5c-32.1,49.3-70.4,93-114.7,130.9c-44.4,37.9-97.8,68.2-160.4,90.8S389.7,898,318.4,898c-112.3,0-215.2-30.1-308.4-90.2c14.5,1.7,30.7,2.5,48.5,2.5c93.3,0,176.4-28.6,249.4-85.8c-43.5-0.8-82.5-14.2-116.9-40.1c-34.4-25.9-58-59-70.9-99.2c13.7,2.1,26.3,3.1,37.9,3.1c17.8,0,35.4-2.3,52.9-6.8c-46.4-9.5-84.9-32.6-115.3-69.3C65,475.4,49.8,432.8,49.8,384.3v-2.5c28.2,15.8,58.5,24.3,90.8,25.5c-27.4-18.2-49.1-42.1-65.3-71.5C59.1,306.4,51,274.5,51,240.1c0-36.5,9.1-70.3,27.4-101.4c50.2,61.8,111.2,111.2,183.1,148.3c71.9,37.1,148.9,57.7,231,61.9c-3.3-15.8-5-31.1-5-46c0-55.5,19.6-102.9,58.8-142.1c39.2-39.2,86.5-58.8,142.1-58.8c58,0,107,21.1,146.8,63.4c45.2-8.7,87.7-24.9,127.5-48.5c-15.3,47.7-44.8,84.6-88.3,110.7C912.9,223.5,951.4,213.1,990,196.5L990,196.5z"/></g></g>
</svg>