<?xml version="1.0" encoding="utf-8"?>
<!-- Generator: Adobe Illustrator 17.1.0, SVG Export Plug-In . SVG Version: 6.00 Build 0)  -->
<!DOCTYPE svg PUBLIC "-//W3C//DTD SVG 1.1//EN" "http://www.w3.org/Graphics/SVG/1.1/DTD/svg11.dtd">
<svg version="1.1" id="Layer_1" xmlns="http://www.w3.org/2000/svg" xmlns:xlink="http://www.w3.org/1999/xlink" x="0px" y="0px"
	 viewBox="0 0 64 64" enable-background="new 0 0 64 64" xml:space="preserve">
<circle display="none" fill="#FFDD67" cx="32" cy="32" r="30"/>
<circle fill="#FFFFFF" cx="19.5" cy="24.8" r="10"/>
<circle fill="#664E27" cx="19.5" cy="24.8" r="3.5"/>
<circle fill="#FFFFFF" cx="44.5" cy="24.8" r="10"/>
<circle fill="#664E27" cx="44.5" cy="24.8" r="3.5"/>
<g>
	<path fill="#664E27" d="M47.7,44c-1.7-3.6-5.9-6-15.7-6c-9.8,0-14,2.4-15.7,6c-0.9,1.9,0.4,5,0.4,5c1.6,3.9,1.4,5,15.3,5
		c13.9,0,13.6-1.1,15.3-5C47.3,49,48.6,45.9,47.7,44z"/>
	<path fill="#FFFFFF" d="M43.4,43c0.1-0.3,0-0.6-0.2-0.8c0,0-2.5-2.2-11.1-2.2s-11.1,2.2-11.1,2.2c-0.2,0.2-0.3,0.5-0.2,0.8l0.2,0.6
		c0.1,0.3,0.4,0.5,0.7,0.5h21c0.3,0,0.6-0.2,0.7-0.5L43.4,43z"/>
</g>
<g>
	<path fill="#917524" d="M50.2,13.5c-3.2-2.7-7.5-3.9-11.7-3.1c-0.6,0.1-1.1-2-0.4-2.2c4.8-0.9,9.8,0.5,13.5,3.6
		C52.2,12.2,50.6,13.8,50.2,13.5z M25.5,10.2c-4.2-0.7-8.5,0.4-11.7,3.1c-0.4,0.4-2-1.2-1.4-1.7c3.7-3.2,8.7-4.5,13.5-3.6
		C26.6,8.2,26.1,10.3,25.5,10.2z"/>
</g>
</svg>
