<?xml version="1.0" encoding="utf-8"?>
<!-- Generator: Adobe Illustrator 17.1.0, SVG Export Plug-In . SVG Version: 6.00 Build 0)  -->
<!DOCTYPE svg PUBLIC "-//W3C//DTD SVG 1.1//EN" "http://www.w3.org/Graphics/SVG/1.1/DTD/svg11.dtd">
<svg version="1.1" id="Layer_1" xmlns="http://www.w3.org/2000/svg" xmlns:xlink="http://www.w3.org/1999/xlink" x="0px" y="0px"
	 viewBox="0 0 64 64" enable-background="new 0 0 64 64" xml:space="preserve">
<path display="none" fill="#FFDD67" d="M32,2c16.6,0,30,13.4,30,30S48.6,62,32,62C15.4,62,2,48.6,2,32S15.4,2,32,2"/>
<path fill="#494949" d="M35.8,20.5c-2.2,1.1-5.5,1.1-7.7,0c-2.3-1.2-5.2-2-8.7-2.3c-3.4-0.3-10.5-0.3-14,1c-0.4,0.1-0.8,0.3-1.2,0.5
	C4.1,19.8,4,19.9,4,20.3v0.5c0,1-0.1,0.6,0.6,1c1.4,0.8,2.2,2.9,2.6,5.8c0.6,4.2,2.7,6.9,6,8.1c3.1,1.2,6.6,1.1,9.7-0.1
	c1.7-0.7,3.2-1.7,4.4-3.5c2.1-3,1.4-4.9,2.5-7.5c0.9-2.3,3.5-2.3,4.5,0c1.1,2.6,0.4,4.5,2.5,7.5c1.2,1.7,2.7,2.8,4.4,3.5
	c3.1,1.2,6.6,1.3,9.7,0.1c3.4-1.3,5.4-3.9,6-8.1c0.4-2.9,1.2-5,2.6-5.8c0.7-0.4,0.6,0,0.6-1v-0.5c0-0.4,0-0.5-0.3-0.6
	c-0.4-0.2-0.8-0.4-1.2-0.5c-3.6-1.3-10.7-1.3-14-1C41.1,18.5,38.2,19.3,35.8,20.5"/>
<path fill="#664E27" d="M44.6,42.3c-8.1,5.7-17.1,5.6-25.2,0c-1-0.7-1.8,0.5-1.2,1.6c2.5,4,7.4,7.7,13.8,7.7s11.3-3.6,13.8-7.7
	C46.4,42.8,45.6,41.6,44.6,42.3z"/>
</svg>
